# xmcd
#
# Track frame offsets:
#	150
#	19134
#	34115
#	54214
#	71765
#	85157
#	99040
#	115074
#	130876
#	148733
#	167717
#	182698
#	202797
#	220348
#	233740
#	247623
#	263657
#	279459
#
# Disc length: 3964
#
# Revision: 1
# Processed by: cddbd v1.5.2PL0 Copyright (c) Steve Scherf et al.
# Submitted via: kJams Pro (development) 1.0patch45.20
#
DISCID=eb0f7a12
DTITLE=Various Artist - NSC 3046
DYEAR=2004
DGENRE=Country
TTITLE0=Kenny Chesney - There Goes My Life
TTITLE1=Brooks and Dunn - You Can't Take The Honky Tonk Out Of The Girl
TTITLE2=Alan Jackson - Remember When
TTITLE3=Sara Evans - Perfect
TTITLE4=Joe Nichols - Cool To Be A Fool
TTITLE5=Blue Country - Good Little Girls
TTITLE6=Kelley Coffey - Texas Plates
TTITLE7=Buddy Jewell - Sweet Southern Comfort
TTITLE8=Wyonna Judd - Heaven Help Me
TTITLE9=Kenney Chesney - Vocals - There Goes My Life
TTITLE10=Brooks and Dunn - Vocals - You Can't Take The Honky Tonk Out Of The Girl
TTITLE11=Alan Jackson - Vocals - Remember When
TTITLE12=Sara Evans - Vocals - Perfect
TTITLE13=Joe Nichols - Vocals - Cool To Be A Fool
TTITLE14=Blue Country - Vocals - Good Little Girls
TTITLE15=Kelley Coffey - Vocals - Texas Plates
TTITLE16=Buddy Jewell - Sweet Southern Comfort
TTITLE17=Wyonna Judd - Vocals - Heaven Help Me
EXTD=
EXTT0=
EXTT1=
EXTT2=
EXTT3=
EXTT4=
EXTT5=
EXTT6=
EXTT7=
EXTT8=
EXTT9=
EXTT10=
EXTT11=
EXTT12=
EXTT13=
EXTT14=
EXTT15=
EXTT16=
EXTT17=
PLAYORDER=
